<svg width="65" height="65" viewBox="0 0 65 65" fill="none" xmlns="http://www.w3.org/2000/svg">
<g id="tabler:eye-check">
<g id="Group">
<path id="Vector" d="M17.2451 29.2501C17.2451 31.6009 18.179 33.8554 19.8412 35.5176C21.5035 37.1799 23.758 38.1137 26.1088 38.1137C28.4595 38.1137 30.714 37.1799 32.3763 35.5176C34.0385 33.8554 34.9724 31.6009 34.9724 29.2501C34.9724 26.8993 34.0385 24.6448 32.3763 22.9826C30.714 21.3203 28.4595 20.3865 26.1088 20.3865C23.758 20.3865 21.5035 21.3203 19.8412 22.9826C18.179 24.6448 17.2451 26.8993 17.2451 29.2501Z" stroke="#6694C5" stroke-width="3" stroke-linecap="round" stroke-linejoin="round"/>
<path id="Vector_2" d="M23.6763 45.3835C15.0006 44.5494 7.68631 39.1715 1.7334 29.25C8.2334 18.4167 16.3584 13 26.1084 13C35.8584 13 43.9834 18.4167 50.4834 29.25C49.9136 30.1998 49.3147 31.1319 48.6878 32.045M34.2334 48.2083L39.6501 53.625L50.4834 42.7917" stroke="#6694C5" stroke-width="3" stroke-linecap="round" stroke-linejoin="round"/>
</g>
</g>
</svg>
